PathFileType	4	(X/Y/Z)	C:/Users/beibeiliu/ov580/test_trc/User1\sequence.28_training_dense_right.trc
DataRate	CameraRate	NumFrames	NumMarkers	Units	OrigDataRate	OrigDataStartFrame	OrigNumFrames
120	120	14	19	mm	120	183	243
Frame#	Time	ThumbCMC			ThumbMCP			ThumbIP			ThumbTip			IndexMCP			IndexPIP			IndexTip			MiddleMCP			MiddlePIP			MiddleTip			RingMCP			RingPIP			RingTip			PinkyMCP			PinkyPIP			PinkyTip			BackHand1			BackHand2			BackHand3	
		X0	Y0	Z0	X1	Y1	Z1	X2	Y2	Z2	X3	Y3	Z3	X4	Y4	Z4	X5	Y5	Z5	X6	Y6	Z6	X7	Y7	Z7	X8	Y8	Z8	X9	Y9	Z9	X10	Y10	Z10	X11	Y11	Z11	X12	Y12	Z12	X13	Y13	Z13	X14	Y14	Z14	X15	Y15	Z15	X16	Y16	Z16	X17	Y17	Z17	X18	Y18	Z18	
182	1.51667	146.021	-11.6938	67.8793	138.44	-18.3294	28.931	155.791	-24.8141	-2.75561	174.439	-44.4357	-14.195	185.28	18.4511	-4.2893	184.012	14.0053	-33.0209	173.736	2.11261	-55.7117	213.463	2.5966	1.21284	223.369	6.643	-27.5548	225.051	12.695	-63.2818	218.072	-20.3536	0.537705	224.57	-18.4074	-33.0543	218.753	-21.7183	-60.4627	212.816	-46.312	2.19479	206.034	-43.4273	-18.8923	200.845	-37.9991	-40.5187	211.884	-28.9336	52.2886	206.64	-42.7037	86.8523	189.318	-5.59226	73.9262	
183	1.525	149.019	-12.9973	67.7929	140.85	-16.713	26.4317	153.811	-22.9433	-1.45008	174.173	-42.8506	-15.1949	186.647	15.9286	-0.548451	181.385	16.6677	-31.8231	171.225	6.79112	-56.108	215.573	1.38519	-0.590467	223.996	9.45022	-31.0944	225.909	10.0346	-63.8155	220.647	-19.6768	-5.13896	222.6	-16.6815	-35.3784	216.623	-18.334	-60.1236	213.186	-48.8721	4.3475	207.863	-45.0785	-19.6112	197.21	-37.1261	-44.6897	212.38	-29.4612	52.9447	206.35	-41.2795	87.0443	188.858	-4.51643	71.7796	
184	1.53333	148.333	-9.28817	65.4213	143.675	-15.0121	26.0147	156.463	-22.6647	-1.87217	174.716	-40.6978	-12.5646	184.22	19.2599	-4.07733	181.127	16.0455	-35.0144	171.417	4.08953	-57.2504	216.197	4.03906	-3.05977	222.956	8.52338	-29.1696	226.088	13.071	-64.8858	218.099	-19.4282	-3.06362	220.851	-14.0654	-34.2846	216.911	-18.9938	-61.8894	211.019	-45.1193	5.05226	209.597	-46.1665	-20.7952	200.272	-41.244	-43.9868	209.819	-28.7002	52.9391	205.591	-36.1896	84.4232	188.441	-5.71944	71.5231	
185	1.54167	148.381	-11.6097	67.7853	138.621	-14.2772	26.4248	156.312	-22.5055	1.67275	174.54	-40.2584	-13.5781	184.595	19.0289	-5.78934	181.646	17.1505	-32.1959	168.471	1.92117	-60.37	214.63	8.90522	-4.37451	222.735	11.1923	-33.1657	224.166	13.2566	-62.0177	219.133	-18.4869	-7.45239	222.545	-17.225	-31.627	215.847	-15.4528	-60.529	210.818	-43.5521	5.49885	206.909	-42.2647	-21.5639	199.083	-40.18	-43.2001	210.781	-27.1542	50.5307	204.897	-39.9634	86.8648	187.995	-4.69611	73.6662	
186	1.55	147.52	-11.5265	69.1386	139.628	-13.2241	26.1173	158.107	-20.9384	0.326901	174.315	-38.6529	-14.7011	183.407	20.0247	-1.93211	178.96	17.5631	-33.676	167.432	3.58807	-58.1071	213.261	7.71801	-1.1751	221.058	14.1189	-28.5184	224.912	15.332	-64.7266	220.297	-18.8681	-6.12324	221.642	-16.4426	-32.7481	215.637	-15.2817	-60.0368	213.527	-45.1286	1.06802	204.813	-39.807	-19.757	196.968	-35.1956	-42.5532	209.795	-27.653	53.159	207.592	-38.7098	85.6978	190.121	-2.04916	69.4823	
187	1.55833	147.645	-12.0075	70.5563	142.322	-13.7831	28.1221	153.249	-20.4812	0.823102	171.852	-38.2571	-16.0586	186.043	17.6979	-0.870271	179.109	19.249	-34.8379	169.558	4.06409	-56.9517	213.714	6.24888	-1.13453	220.895	15.5549	-32.9817	224.757	13.976	-64.5324	219.28	-16.7445	-5.63735	220.37	-13.2191	-31.3627	215.501	-15.4266	-62.2742	212.685	-44.5351	-0.314162	206.621	-42.468	-23.0257	196.523	-35.78	-46.503	213.182	-30.1318	54.0411	207.99	-37.0621	83.7416	189.777	-3.16852	70.0092	
188	1.56667	148.792	-12.3288	70.8435	137.758	-12.3369	28.0007	156.398	-19.2374	0.554404	171.999	-37.5018	-15.5785	185.055	20.9997	-2.3359	180.261	17.0572	-33.5668	169.731	4.53395	-56.1271	215.191	9.02137	-2.46304	223.409	10.6609	-28.6388	225.27	13.8227	-65.135	218.147	-15.8398	-3.48926	222.719	-14.7127	-31.8262	217.168	-17.311	-61.3277	210.684	-41.4033	4.03303	205.476	-38.3165	-21.2898	195.579	-32.5265	-45.9344	211.154	-30.8429	54.9985	208.103	-35.3861	83.4409	192.232	-6.91963	74.1946	
189	1.575	147.317	-7.6266	67.6087	140.944	-10.2891	26.1039	156.464	-18.2462	-2.84439	174.07	-37.2222	-13.8715	184.561	20.4006	0.342075	179.639	20.4542	-33.5577	167.909	9.32431	-55.4076	215.523	9.15674	-2.31559	222.368	16.7909	-33.0226	224.698	16.6637	-62.1504	219.507	-14.9366	-6.50813	221.316	-11.5543	-33.5187	217.491	-18.0645	-60.1764	213.134	-44.6414	4.59584	204.316	-37.2308	-21.2591	196.137	-33.4997	-42.6729	213.281	-29.8375	53.914	207.215	-35.7449	85.3039	189.355	-3.17955	72.4395	
190	1.58333	147.246	-9.40185	70.8531	141.538	-10.1112	26.9834	153.944	-17.7696	0.112118	174.873	-36.7642	-14.9227	184.873	23.0922	-1.47661	181.238	21.5031	-31.9989	168.812	8.97379	-57.5482	214.559	7.61656	0.210891	223.886	13.8114	-33.0723	226.201	14.2171	-65.0948	219.169	-14.7703	-6.97447	221.704	-12.034	-32.8827	217.23	-15.2146	-63.4577	211.575	-40.6107	6.5652	207.208	-37.6241	-19.9178	197.501	-34.7587	-43.1803	213.313	-29.1476	51.0621	206.634	-36.5824	87.0507	189.252	-1.1485	72.5911	
191	1.59167	151.278	-6.7394	66.915	140.824	-10.3972	30.9565	154.968	-15.9353	-2.65042	169.179	-34.7627	-16.1824	188.344	21.0846	-4.32795	183.873	21.4592	-31.4312	171.765	12.8015	-54.4593	218.018	8.1251	-4.60074	224.477	13.4953	-30.3204	225.609	16.7309	-63.1962	220.798	-17.2284	-2.68157	222.022	-11.2752	-32.5562	216.519	-12.2358	-60.5552	215.045	-43.1184	3.21706	210.346	-41.21	-21.4523	196.166	-32.5877	-45.0195	212.833	-24.8758	53.6132	205.889	-34.8379	85.6003	192.581	-3.43282	68.8809	
192	1.6	151.331	-3.82405	68.126	138.184	-6.323	27.6574	154.622	-14.5813	0.909797	166.584	-34.4302	-15.6205	187.582	24.6497	-1.54796	187.25	20.2841	-29.2998	172.274	11.72	-57.8859	219.26	7.18552	-3.48239	224.363	14.7981	-32.2766	226.921	17.9339	-63.46	221.573	-14.5623	-5.91186	226.28	-14.0723	-31.6442	218.821	-10.312	-61.866	213.093	-40.6377	2.32148	211.316	-41.1538	-22.5002	204	-38.1884	-45.5068	212.637	-27.8501	52.2263	207.723	-33.7302	82.2084	192.522	-2.31966	73.9653	
193	1.60833	153.71	-4.28958	71.5674	141.218	-2.83795	27.8192	147.015	-12.1035	3.50945	162.408	-33.557	-15.2763	191.373	22.8842	1.01506	188.722	23.123	-29.3943	173.441	15.3646	-57.2277	219.186	7.57235	-4.34136	225.393	13.3252	-29.1598	227.536	15.6381	-61.7962	222.709	-19.5491	-0.778694	226.658	-12.1622	-32.6873	223.933	-11.9315	-61.6814	214.773	-49.5556	4.41017	213.195	-46.5066	-23.8518	207.446	-42.4513	-48.1909	217.064	-30.2056	49.2248	210.951	-40.0215	84.8213	195.452	-4.00186	73.5729	
194	1.61667	156.541	2.45238	71.5826	140.928	3.07582	30.8671	147.578	-7.21578	2.06362	157.235	-30.5031	-11.7432	198.583	20.1112	-3.50315	193.975	22.2745	-31.7522	182.222	12.359	-55.8499	224.558	2.0308	-5.53287	231.124	6.04047	-32.7951	232.712	10.0325	-62.9714	224.143	-23.3358	-2.80715	230.797	-20.7232	-30.3306	229.718	-20.3788	-57.3194	212.948	-48.0289	1.78447	214.216	-52.5597	-18.074	212.387	-43.6894	-42.7789	214.487	-32.0584	48.6164	211.65	-40.0007	83.2889	200.467	-2.84912	70.5261	
195	1.625	165.769	4.66015	69.7556	147.82	6.57388	32.7366	147.862	-3.66612	7.16296	155.631	-27.6655	-7.2779	204.739	17.0893	-4.27728	201.963	20.3305	-32.3268	187.353	16.4217	-59.8452	226.783	-1.1084	-5.19564	234.333	1.86793	-33.6778	237.396	-0.167604	-62.4566	225.981	-31.2859	-3.83025	233.446	-27.9837	-28.9788	233.488	-25.9018	-57.5333	212.232	-55.6231	2.75536	213.659	-59.5936	-17.0882	216.464	-49.5232	-44.5451	212.582	-35.1553	51.5736	210.251	-44.2151	82.2382	204.356	-8.15337	70.4583	
